<svg width="82" height="29" viewBox="0 0 82 29" fill="none" xmlns="http://www.w3.org/2000/svg">
<path d="M80.6664 13.1413C79.8139 12.5837 78.651 12.2213 77.3179 12.0859L76.6917 7.4217C77.3094 7.41845 77.8362 7.17428 77.9438 6.83967L78.1853 6.08808C78.4441 5.28244 78.0831 4.48718 77.1947 3.90628C76.3075 3.32601 75.0084 3.00633 73.5368 3.00633H64.1109L64.5698 1.57849C64.7 1.17295 64.5113 0.76802 64.0523 0.467773C63.5978 0.170515 62.9144 0 62.1773 0H15.7792C14.4072 0 13.1442 0.585815 12.9038 1.33388L8.79883 14.1108C8.67583 14.494 9.14205 14.8595 9.84033 14.927C9.9156 14.9343 9.99055 14.9378 10.0647 14.9378C10.676 14.9378 11.2178 14.6972 11.3275 14.3554L15.4327 1.57849C15.4597 1.49438 15.657 1.40912 15.7791 1.40912L62.0166 1.40921L57.9356 14.1108C57.8124 14.494 58.2787 14.8595 58.9771 14.927C59.6746 14.9944 60.3413 14.7386 60.4643 14.3554L60.7603 13.4344H76.1138C76.1143 13.4344 76.115 13.4344 76.1156 13.4344C76.1162 13.4344 76.1169 13.4344 76.1174 13.4344C77.1786 13.4345 78.0954 13.652 78.6994 14.0469C79.115 14.3188 79.3575 14.6572 79.4158 15.0315H75.151C74.5278 15.0315 73.9948 15.277 73.8865 15.6138L73.4037 17.117C73.2091 17.7226 73.4839 18.3226 74.1575 18.7632C74.8219 19.1979 75.8304 19.447 76.9241 19.447H78.1329L77.1368 22.5473H73.747C73.5239 21.9272 73.0356 21.3569 72.2955 20.873C70.9824 20.014 69.05 19.5411 66.8547 19.5411C63.3346 19.5411 59.9385 20.805 58.3486 22.5474H57.8325L59.4986 17.3617C59.6216 16.9785 59.1555 16.6131 58.4571 16.5456C57.7591 16.4779 57.0929 16.7338 56.9699 17.1171L55.2251 22.5475H31.4576C31.2345 21.9274 30.7462 21.3572 30.0061 20.8732C28.6928 20.0142 26.7605 19.5413 24.5651 19.5413C21.045 19.5413 17.6489 20.8052 16.059 22.5476L8.69537 22.5475L9.20851 20.9505H14.9788C15.6878 20.9505 16.2628 20.635 16.2628 20.2458C16.2628 19.8567 15.688 19.5412 14.9788 19.5412H1.28397C0.574961 19.5412 0 19.8566 0 20.2458C0 20.6349 0.574801 20.9505 1.28397 20.9505H6.60133L6.14248 22.3783C6.01227 22.7839 6.20093 23.1888 6.65994 23.489C7.11447 23.7863 7.79785 23.9568 8.53489 23.9568H15.2253C14.8772 25.1521 15.4003 26.2781 16.7096 27.1343C18.0229 27.9933 19.9552 28.4662 22.1506 28.4662C26.5203 28.4662 30.7009 26.5193 31.4698 24.126C31.4879 24.0693 31.5021 24.013 31.5165 23.9567H57.5149C57.1667 25.1519 57.6898 26.2779 58.9992 27.1342C60.3125 27.9932 62.2448 28.4661 64.4402 28.4661C68.8099 28.4661 72.9905 26.5192 73.7594 24.1259C73.7775 24.0692 73.7917 24.0129 73.8061 23.9566H78.2144C78.8376 23.9566 79.3706 23.7111 79.4789 23.3743L81.8937 15.8585C82.2214 14.8383 81.7856 13.8733 80.6664 13.1413ZM61.2134 12.0254L62.6924 7.42196H74.1173L74.7354 12.0254H61.2134ZM75.6564 5.84347L75.602 6.01276H63.145L63.6582 4.41563H73.5368C74.2362 4.41563 74.8367 4.55644 75.2275 4.81212C75.6327 5.07703 75.7852 5.4432 75.6564 5.84347ZM28.9411 23.8815C28.3786 25.6326 25.3323 27.0571 22.1506 27.0571C20.7274 27.0571 19.4936 26.7628 18.6766 26.2286C17.8361 25.6788 17.5158 24.9323 17.7748 24.1263C18.3374 22.3751 21.3836 20.9506 24.5653 20.9506C25.9884 20.9506 27.2223 21.2449 28.0392 21.7792C28.8797 22.3288 29.2 23.0755 28.9411 23.8815ZM71.2305 23.8815C70.6679 25.6326 67.6217 27.0571 64.44 27.0571C63.0169 27.0571 61.783 26.7628 60.9661 26.2285C60.1256 25.6787 59.8053 24.9322 60.0642 24.1262C60.6267 22.3751 63.673 20.9506 66.8547 20.9506C68.2777 20.9506 69.5117 21.2448 70.3287 21.7791C71.1692 22.3288 71.4895 23.0755 71.2305 23.8815ZM78.5857 18.0382H76.9241V18.0381C76.5815 18.0381 76.3051 17.9757 76.1246 17.8577C75.9373 17.7352 75.869 17.5592 75.9324 17.362L76.2283 16.4411H79.0988L78.5857 18.0382Z" fill="#AE7C78"/>
<path d="M25.4749 23.0154C25.0204 22.7181 24.337 22.5476 23.5998 22.5476C22.2278 22.5476 20.9648 23.1334 20.7244 23.8815C20.5942 24.287 20.7828 24.692 21.2418 24.9922C21.6964 25.2895 22.3798 25.46 23.1168 25.46C24.4889 25.46 25.7518 24.8741 25.9922 24.1262C26.1226 23.7206 25.9341 23.3157 25.4749 23.0154Z" fill="#AE7C78"/>
<path d="M67.7637 23.0154C67.309 22.7181 66.6256 22.5476 65.8888 22.5476C64.5167 22.5476 63.2537 23.1334 63.0135 23.8814C62.8833 24.287 63.0716 24.6919 63.5308 24.9922C63.9853 25.2895 64.6687 25.46 65.4057 25.46C66.7778 25.46 68.0408 24.8741 68.2812 24.1262C68.4116 23.7206 68.2229 23.3157 67.7637 23.0154Z" fill="#AE7C78"/>
<path d="M51.7904 19.5413H35.5213C34.8123 19.5413 34.2373 19.8567 34.2373 20.2459C34.2373 20.635 34.8121 20.9506 35.5213 20.9506H51.7904C52.4995 20.9506 53.0744 20.6351 53.0744 20.2459C53.0743 19.8567 52.4995 19.5413 51.7904 19.5413Z" fill="#AE7C78"/>
<path d="M28.6739 16.5349H4.98905C4.28004 16.5349 3.70508 16.8504 3.70508 17.2396C3.70508 17.6287 4.27972 17.9442 4.98905 17.9442H28.6739C29.3829 17.9442 29.9579 17.6288 29.9579 17.2396C29.9579 16.8504 29.3831 16.5349 28.6739 16.5349Z" fill="#AE7C78"/>
<path d="M53.1919 13.7001L48.4385 11.4453C47.9019 11.1909 47.0912 11.2232 46.6274 11.5176C46.1636 11.8121 46.2227 12.257 46.7592 12.5116L48.9034 13.5287H16.3479C15.6389 13.5287 15.064 13.8441 15.064 14.2333C15.064 14.6224 15.6388 14.938 16.3479 14.938H48.0892L45.441 15.9008C44.8497 16.1156 44.6881 16.5528 45.0797 16.8773C45.3266 17.082 45.735 17.1928 46.1511 17.1928C46.3946 17.1928 46.6409 17.1548 46.859 17.0755L53.0614 14.8207C53.3964 14.6991 53.608 14.4983 53.6336 14.2782C53.6592 14.0581 53.4959 13.8441 53.1919 13.7001Z" fill="#AE7C78"/>
</svg>
